# xmcd
#
# Track frame offsets:
#	150
#	17591
#	33581
#	50825
#	67434
#	84992
#	101864
#	119310
#	135636
#	156280
#	175154
#	190267
#	208959
#	212954
#	229448
#	247800
#	265484
#
# Disc length: 3796 seconds
#
# Revision: 0
# Processed by: cddbd v1.5.2PL0 Copyright (c) Steve Scherf et al.
# Submitted via: EasyCDDAExtractor 12.0.6 .1
#
DISCID=080ed211
DTITLE=E-Side Ghetto - Ghetto Tales
DYEAR=2000
DGENRE=
TTITLE0=Just Business
TTITLE1=Don't Stop
TTITLE2=1800
TTITLE3=Choppin It Up
TTITLE4=NO
TTITLE5=Dinero
TTITLE6=Hit A Lick
TTITLE7=Don't Believe In Love (Feat. J.V.)
TTITLE8=Child
TTITLE9=Chances (Feat. Snoopy IV)
TTITLE10=Gangsta Shit
TTITLE11=Cloud Over My Head
TTITLE12=Super Star (Skit)
TTITLE13=Super Stars
TTITLE14=Page Me
TTITLE15=Call Me Daddy (Feat. Snoopy IV and Janis O)
TTITLE16=Being With You (Feat. Janis O)
EXTD=
EXTT0=
EXTT1=
EXTT2=
EXTT3=
EXTT4=
EXTT5=
EXTT6=
EXTT7=
EXTT8=
EXTT9=
EXTT10=
EXTT11=
EXTT12=
EXTT13=
EXTT14=
EXTT15=
EXTT16=
PLAYORDER=
